<svg id="disk_1_" xmlns="http://www.w3.org/2000/svg" width="28.564" height="28" viewBox="0 0 28.564 28">
  <g id="Grupo_4" data-name="Grupo 4">
    <path id="Caminho_2" data-name="Caminho 2" d="M14.282,4.667A9.44,9.44,0,0,0,4.761,14h2.38a7.079,7.079,0,0,1,7.141-7Zm0,4.667A4.668,4.668,0,1,0,19.043,14,4.715,4.715,0,0,0,14.282,9.333Zm0,7A2.334,2.334,0,1,1,16.662,14,2.36,2.36,0,0,1,14.282,16.333ZM14.282,0A14.143,14.143,0,0,0,0,14,14.143,14.143,0,0,0,14.282,28,14.143,14.143,0,0,0,28.564,14,14.143,14.143,0,0,0,14.282,0Zm0,25.667A11.8,11.8,0,0,1,2.38,14a11.8,11.8,0,0,1,11.9-11.667A11.8,11.8,0,0,1,26.183,14,11.8,11.8,0,0,1,14.282,25.667Z" fill="#fff"/>
  </g>
</svg>
